<?xml version="1.0" encoding="utf-8" ?>
<svg baseProfile="full" height="1024" version="1.1" width="1024" xmlns="http://www.w3.org/2000/svg" xmlns:ev="http://www.w3.org/2001/xml-events" xmlns:xlink="http://www.w3.org/1999/xlink"><defs /><path d="M 554,469 L 553,470 L 549,470 L 548,471 L 546,471 L 545,472 L 545,474 L 544,475 L 544,546 L 545,547 L 545,548 L 546,548 L 547,549 L 548,549 L 549,550 L 552,550 L 553,551 L 609,551 L 610,550 L 612,550 L 614,548 L 614,547 L 615,546 L 615,544 L 616,543 L 616,475 L 615,474 L 615,472 L 613,470 L 612,470 L 611,469 Z" fill="black" /><path d="M 533,390 L 532,391 L 532,432 L 533,433 L 571,433 L 572,432 L 572,408 L 573,407 L 573,406 L 572,405 L 572,392 L 570,390 Z" fill="black" /><path d="M 634,378 L 634,403 L 635,404 L 635,409 L 634,410 L 634,440 L 635,440 L 636,441 L 671,441 L 672,440 L 673,441 L 675,441 L 676,440 L 677,440 L 678,441 L 679,441 L 680,440 L 681,441 L 683,441 L 684,440 L 689,440 L 690,439 L 691,439 L 692,438 L 692,392 L 693,391 L 693,383 L 692,382 L 692,380 L 690,378 Z" fill="black" /><path d="M 597,296 L 595,298 L 595,304 L 596,305 L 596,320 L 595,321 L 596,322 L 595,323 L 595,339 L 596,340 L 596,341 L 597,342 L 608,342 L 609,341 L 638,341 L 639,340 L 639,297 L 638,296 Z" fill="black" /><path d="M 499,123 L 499,124 L 500,125 L 500,126 L 501,127 L 501,129 L 502,130 L 502,133 L 503,134 L 503,138 L 504,139 L 504,144 L 505,145 L 505,152 L 506,153 L 506,178 L 505,179 L 505,187 L 504,188 L 504,193 L 503,194 L 503,198 L 502,199 L 502,203 L 501,204 L 501,207 L 500,208 L 500,210 L 499,211 L 499,214 L 498,215 L 498,217 L 497,218 L 497,220 L 496,221 L 496,223 L 495,224 L 495,226 L 494,227 L 494,229 L 493,230 L 493,231 L 492,232 L 492,233 L 491,234 L 491,236 L 490,237 L 490,238 L 489,239 L 489,240 L 488,241 L 488,242 L 487,243 L 487,245 L 486,246 L 486,247 L 485,248 L 485,249 L 484,250 L 484,251 L 483,252 L 483,253 L 481,255 L 481,256 L 480,257 L 480,258 L 479,259 L 479,260 L 477,262 L 477,263 L 476,264 L 476,265 L 474,267 L 474,268 L 473,269 L 473,270 L 471,272 L 471,273 L 469,275 L 469,276 L 466,279 L 466,280 L 464,282 L 464,283 L 461,286 L 461,287 L 458,290 L 458,291 L 454,295 L 454,296 L 450,300 L 450,301 L 445,306 L 445,307 L 436,316 L 436,317 L 394,359 L 393,359 L 376,376 L 375,376 L 365,386 L 364,386 L 357,393 L 356,393 L 348,401 L 347,401 L 316,432 L 316,433 L 310,439 L 310,440 L 305,445 L 305,446 L 301,450 L 301,451 L 298,454 L 298,455 L 295,458 L 295,459 L 293,461 L 293,462 L 291,464 L 291,465 L 289,467 L 289,468 L 287,470 L 287,471 L 285,473 L 285,474 L 284,475 L 284,476 L 282,478 L 282,479 L 281,480 L 281,481 L 280,482 L 280,483 L 278,485 L 278,486 L 277,487 L 277,488 L 276,489 L 276,490 L 275,491 L 275,492 L 274,493 L 274,494 L 273,495 L 273,496 L 272,497 L 272,498 L 271,499 L 271,500 L 270,501 L 270,502 L 269,503 L 269,505 L 268,506 L 268,507 L 267,508 L 267,509 L 266,510 L 266,512 L 265,513 L 265,514 L 264,515 L 264,517 L 263,518 L 263,519 L 262,520 L 262,522 L 261,523 L 261,525 L 260,526 L 260,528 L 259,529 L 259,531 L 258,532 L 258,534 L 257,535 L 257,538 L 256,539 L 256,541 L 255,542 L 255,545 L 254,546 L 254,549 L 253,550 L 253,554 L 252,555 L 252,558 L 251,559 L 251,564 L 250,565 L 250,571 L 249,572 L 249,580 L 248,581 L 248,622 L 249,623 L 249,632 L 250,633 L 250,639 L 251,640 L 251,645 L 252,646 L 252,650 L 253,651 L 253,654 L 254,655 L 254,659 L 255,660 L 255,663 L 256,664 L 256,666 L 257,667 L 257,670 L 258,671 L 258,673 L 259,674 L 259,676 L 260,677 L 260,679 L 261,680 L 261,682 L 262,683 L 262,685 L 263,686 L 263,687 L 264,688 L 264,690 L 265,691 L 265,693 L 266,694 L 266,695 L 267,696 L 267,697 L 268,698 L 268,699 L 269,700 L 269,702 L 270,703 L 270,704 L 271,705 L 271,706 L 272,707 L 272,708 L 273,709 L 273,710 L 274,711 L 274,712 L 275,713 L 275,714 L 276,715 L 276,716 L 277,717 L 277,718 L 278,719 L 278,720 L 280,722 L 280,723 L 281,724 L 281,725 L 282,726 L 282,727 L 284,729 L 284,730 L 285,731 L 285,732 L 287,734 L 287,735 L 289,737 L 289,738 L 291,740 L 291,741 L 294,744 L 294,745 L 296,747 L 296,748 L 299,751 L 299,752 L 303,756 L 303,757 L 309,763 L 309,764 L 329,784 L 330,784 L 335,789 L 336,789 L 341,794 L 342,794 L 345,797 L 346,797 L 348,799 L 349,799 L 352,802 L 353,802 L 355,804 L 356,804 L 358,806 L 359,806 L 360,807 L 361,807 L 363,809 L 364,809 L 365,810 L 366,810 L 368,812 L 369,812 L 370,813 L 371,813 L 372,814 L 373,814 L 375,816 L 376,816 L 377,817 L 378,817 L 379,818 L 380,818 L 381,819 L 382,819 L 383,820 L 384,820 L 385,821 L 386,821 L 387,822 L 389,822 L 390,823 L 391,823 L 392,824 L 393,824 L 394,825 L 395,825 L 396,826 L 398,826 L 399,827 L 401,827 L 402,828 L 403,828 L 404,829 L 406,829 L 407,830 L 409,830 L 410,831 L 412,831 L 413,832 L 415,832 L 416,833 L 418,833 L 419,834 L 422,834 L 423,835 L 426,835 L 427,836 L 429,836 L 430,837 L 434,837 L 435,838 L 439,838 L 440,839 L 444,839 L 445,840 L 450,840 L 451,841 L 457,841 L 458,842 L 468,842 L 469,843 L 506,843 L 507,842 L 516,842 L 517,841 L 523,841 L 524,840 L 530,840 L 531,839 L 535,839 L 536,838 L 539,838 L 540,837 L 544,837 L 545,836 L 548,836 L 549,835 L 551,835 L 552,834 L 555,834 L 556,833 L 558,833 L 559,832 L 562,832 L 563,831 L 564,831 L 565,830 L 567,830 L 568,829 L 570,829 L 571,828 L 573,828 L 574,827 L 575,827 L 576,826 L 578,826 L 579,825 L 580,825 L 581,824 L 583,824 L 584,823 L 585,823 L 586,822 L 587,822 L 588,821 L 589,821 L 590,820 L 591,820 L 592,819 L 593,819 L 594,818 L 595,818 L 596,817 L 597,817 L 598,816 L 599,816 L 600,815 L 601,815 L 602,814 L 603,814 L 605,812 L 606,812 L 607,811 L 608,811 L 610,809 L 611,809 L 612,808 L 613,808 L 615,806 L 616,806 L 618,804 L 619,804 L 621,802 L 622,802 L 624,800 L 625,800 L 628,797 L 629,797 L 632,794 L 633,794 L 637,790 L 638,790 L 643,785 L 644,785 L 664,765 L 664,764 L 670,758 L 670,757 L 674,753 L 674,752 L 677,749 L 677,748 L 679,746 L 679,745 L 682,742 L 682,741 L 684,739 L 684,738 L 686,736 L 686,735 L 687,734 L 687,733 L 689,731 L 689,730 L 690,729 L 690,728 L 692,726 L 692,725 L 693,724 L 693,723 L 694,722 L 694,721 L 696,719 L 696,718 L 697,717 L 697,716 L 698,715 L 698,714 L 699,713 L 699,712 L 700,711 L 700,710 L 701,709 L 701,708 L 702,707 L 702,706 L 703,705 L 703,703 L 704,702 L 704,701 L 705,700 L 705,699 L 706,698 L 706,696 L 707,695 L 707,694 L 708,693 L 708,692 L 709,691 L 709,689 L 710,688 L 710,686 L 711,685 L 711,683 L 712,682 L 712,680 L 713,679 L 713,677 L 714,676 L 714,674 L 715,673 L 715,671 L 716,670 L 716,668 L 717,667 L 717,664 L 718,663 L 718,660 L 719,659 L 719,656 L 720,655 L 720,651 L 721,650 L 721,646 L 722,645 L 722,640 L 723,639 L 723,633 L 724,632 L 724,625 L 725,624 L 725,610 L 726,609 L 726,582 L 725,581 L 725,567 L 724,566 L 724,558 L 723,557 L 723,552 L 722,551 L 722,545 L 721,544 L 721,539 L 720,538 L 720,534 L 719,533 L 719,530 L 718,529 L 718,526 L 714,522 L 712,522 L 711,521 L 640,521 L 639,522 L 638,522 L 635,525 L 635,572 L 634,573 L 634,583 L 633,584 L 633,589 L 632,590 L 632,595 L 631,596 L 631,599 L 630,600 L 630,603 L 629,604 L 629,607 L 628,608 L 628,610 L 627,611 L 627,613 L 626,614 L 626,616 L 625,617 L 625,618 L 624,619 L 624,621 L 623,622 L 623,623 L 622,624 L 622,626 L 621,627 L 621,628 L 620,629 L 620,630 L 619,631 L 619,632 L 618,633 L 618,634 L 617,635 L 617,636 L 616,637 L 616,638 L 614,640 L 614,641 L 613,642 L 613,643 L 611,645 L 611,646 L 609,648 L 609,649 L 607,651 L 607,652 L 605,654 L 605,655 L 602,658 L 602,659 L 598,663 L 598,664 L 581,681 L 580,681 L 576,685 L 575,685 L 573,687 L 572,687 L 569,690 L 568,690 L 566,692 L 565,692 L 564,693 L 563,693 L 562,694 L 561,694 L 559,696 L 558,696 L 557,697 L 556,697 L 555,698 L 554,698 L 553,699 L 551,699 L 550,700 L 549,700 L 548,701 L 547,701 L 546,702 L 544,702 L 543,703 L 541,703 L 540,704 L 539,704 L 538,705 L 535,705 L 534,706 L 532,706 L 531,707 L 528,707 L 527,708 L 522,708 L 521,709 L 515,709 L 514,710 L 492,710 L 491,709 L 484,709 L 483,708 L 479,708 L 478,707 L 474,707 L 473,706 L 471,706 L 470,705 L 467,705 L 466,704 L 465,704 L 464,703 L 462,703 L 461,702 L 459,702 L 458,701 L 457,701 L 456,700 L 455,700 L 454,699 L 453,699 L 452,698 L 451,698 L 450,697 L 449,697 L 448,696 L 447,696 L 446,695 L 445,695 L 444,694 L 443,694 L 442,693 L 441,693 L 440,692 L 439,692 L 437,690 L 436,690 L 437,691 L 438,691 L 441,694 L 442,694 L 445,697 L 446,697 L 449,700 L 450,700 L 452,702 L 453,702 L 455,704 L 456,704 L 458,706 L 459,706 L 460,707 L 461,707 L 462,708 L 463,708 L 465,710 L 466,710 L 467,711 L 468,711 L 469,712 L 470,712 L 471,713 L 472,713 L 473,714 L 474,714 L 475,715 L 476,715 L 477,716 L 479,716 L 480,717 L 481,717 L 482,718 L 484,718 L 485,719 L 486,719 L 487,720 L 489,720 L 490,721 L 492,721 L 493,722 L 495,722 L 496,723 L 499,723 L 500,724 L 502,724 L 503,725 L 506,725 L 507,726 L 511,726 L 512,727 L 516,727 L 517,728 L 522,728 L 523,729 L 530,729 L 531,730 L 562,730 L 563,729 L 569,729 L 570,730 L 569,731 L 566,731 L 565,732 L 563,732 L 562,733 L 560,733 L 559,734 L 557,734 L 556,735 L 552,735 L 551,736 L 547,736 L 546,737 L 541,737 L 540,738 L 509,738 L 508,737 L 503,737 L 502,736 L 498,736 L 497,735 L 494,735 L 493,734 L 490,734 L 489,733 L 487,733 L 486,732 L 483,732 L 482,731 L 480,731 L 479,730 L 477,730 L 476,729 L 475,729 L 474,728 L 472,728 L 471,727 L 470,727 L 469,726 L 468,726 L 467,725 L 466,725 L 465,724 L 464,724 L 463,723 L 462,723 L 461,722 L 460,722 L 459,721 L 458,721 L 456,719 L 455,719 L 453,717 L 452,717 L 450,715 L 449,715 L 446,712 L 445,712 L 441,708 L 440,708 L 432,700 L 431,700 L 424,693 L 424,692 L 417,685 L 417,684 L 413,680 L 413,679 L 410,676 L 410,675 L 407,672 L 407,671 L 405,669 L 405,668 L 403,666 L 403,665 L 401,663 L 401,662 L 400,661 L 400,660 L 398,658 L 398,657 L 397,656 L 397,655 L 396,654 L 396,653 L 394,651 L 394,650 L 393,649 L 393,648 L 392,647 L 392,646 L 391,645 L 391,644 L 390,643 L 390,642 L 389,641 L 389,639 L 388,638 L 388,637 L 387,636 L 387,634 L 386,633 L 386,632 L 385,631 L 385,629 L 384,628 L 384,626 L 383,625 L 383,622 L 382,621 L 382,618 L 381,617 L 381,614 L 380,613 L 380,608 L 379,607 L 379,602 L 378,601 L 378,592 L 377,591 L 377,571 L 378,570 L 378,561 L 379,560 L 379,555 L 380,554 L 380,550 L 381,549 L 381,545 L 382,544 L 382,541 L 383,540 L 383,537 L 384,536 L 384,534 L 385,533 L 385,531 L 386,530 L 386,528 L 387,527 L 387,525 L 388,524 L 388,522 L 389,521 L 389,520 L 390,519 L 390,517 L 391,516 L 391,515 L 392,514 L 392,513 L 393,512 L 393,511 L 394,510 L 394,508 L 395,507 L 395,506 L 396,505 L 396,504 L 397,503 L 397,502 L 398,501 L 398,500 L 400,498 L 400,497 L 401,496 L 401,495 L 402,494 L 402,493 L 403,492 L 403,491 L 405,489 L 405,488 L 406,487 L 406,486 L 408,484 L 408,483 L 410,481 L 410,480 L 412,478 L 412,477 L 415,474 L 415,473 L 417,471 L 417,470 L 421,466 L 421,465 L 424,462 L 424,461 L 429,456 L 429,455 L 434,450 L 434,449 L 443,440 L 443,439 L 494,388 L 494,387 L 503,378 L 503,377 L 509,371 L 509,370 L 513,366 L 513,365 L 516,362 L 516,361 L 518,359 L 518,358 L 521,355 L 521,354 L 523,352 L 523,351 L 525,349 L 525,348 L 527,346 L 527,345 L 528,344 L 528,343 L 530,341 L 530,340 L 531,339 L 531,338 L 532,337 L 532,336 L 533,335 L 533,334 L 534,333 L 534,332 L 535,331 L 535,330 L 536,329 L 536,328 L 537,327 L 537,326 L 538,325 L 538,324 L 539,323 L 539,321 L 540,320 L 540,319 L 541,318 L 541,317 L 542,316 L 542,314 L 543,313 L 543,311 L 544,310 L 544,308 L 545,307 L 545,304 L 546,303 L 546,301 L 547,300 L 547,297 L 548,296 L 548,292 L 549,291 L 549,287 L 550,286 L 550,280 L 551,279 L 551,268 L 552,267 L 552,253 L 551,252 L 551,240 L 550,239 L 550,233 L 549,232 L 549,227 L 548,226 L 548,222 L 547,221 L 547,218 L 546,217 L 546,213 L 545,212 L 545,210 L 544,209 L 544,206 L 543,205 L 543,203 L 542,202 L 542,200 L 541,199 L 541,198 L 540,197 L 540,195 L 539,194 L 539,192 L 538,191 L 538,190 L 537,189 L 537,187 L 536,186 L 536,185 L 535,184 L 535,183 L 534,182 L 534,180 L 533,179 L 533,178 L 532,177 L 532,176 L 531,175 L 531,174 L 530,173 L 530,172 L 529,171 L 529,170 L 528,169 L 528,168 L 527,167 L 527,166 L 526,165 L 526,164 L 524,162 L 524,161 L 523,160 L 523,159 L 522,158 L 522,157 L 520,155 L 520,154 L 519,153 L 519,152 L 517,150 L 517,149 L 516,148 L 516,147 L 514,145 L 514,144 L 512,142 L 512,141 L 511,140 L 511,139 L 508,136 L 508,135 L 506,133 L 506,132 L 504,130 L 504,129 L 500,125 L 500,124 Z" fill="black" /></svg>